<svg xmlns="http://www.w3.org/2000/svg" version="1.1" xmlns:xlink="http://www.w3.org/1999/xlink" width="500" height="500"><svg width="500" zoomAndPan="magnify" viewBox="0 0 375 374.999991" height="500" preserveAspectRatio="xMidYMid meet" version="1.2" id="SvgjsSvg1099" sodipodi:docname="Logo v1.1.svg" inkscape:version="1.4.2 (ebf0e940d0, 2025-05-08)" xmlns:inkscape="http://www.inkscape.org/namespaces/inkscape" xmlns:sodipodi="http://sodipodi.sourceforge.net/DTD/sodipodi-0.dtd" xmlns="http://www.w3.org/2000/svg" xmlns:svg="http://www.w3.org/2000/svg">
  <sodipodi:namedview id="SvgjsSodipodi:namedview1098" pagecolor="#ffffff" bordercolor="#000000" borderopacity="0.25" inkscape:showpageshadow="2" inkscape:pageopacity="0.0" inkscape:pagecheckerboard="0" inkscape:deskcolor="#d1d1d1" showguides="true" inkscape:zoom="1.5681247" inkscape:cx="211.08015" inkscape:cy="236.26947" inkscape:window-width="1440" inkscape:window-height="960" inkscape:window-x="0" inkscape:window-y="0" inkscape:window-maximized="1" inkscape:current-layer="svg19">
    <sodipodi:guide position="326.13788,199.21501" orientation="0,1" id="SvgjsSodipodi:guide1097" inkscape:locked="false" inkscape:label="" inkscape:color="rgb(0,134,229)"></sodipodi:guide>
    <sodipodi:guide position="187.4025,268.3259" orientation="-1,0" id="SvgjsSodipodi:guide1096" inkscape:locked="false" inkscape:label="" inkscape:color="rgb(0,134,229)"></sodipodi:guide>
  </sodipodi:namedview>
  <defs id="SvgjsDefs1095">
    <clipPath id="SvgjsClipPath1094">
      <path d="M 70.175781 58.558594 L 304.628906 58.558594 L 304.628906 293.011719 L 70.175781 293.011719 Z M 70.175781 58.558594 " id="SvgjsPath1093"></path>
    </clipPath>
    <clipPath id="SvgjsClipPath1092">
      <path d="M 187.402344 58.558594 C 122.660156 58.558594 70.175781 111.042969 70.175781 175.785156 C 70.175781 240.527344 122.660156 293.011719 187.402344 293.011719 C 252.144531 293.011719 304.628906 240.527344 304.628906 175.785156 C 304.628906 111.042969 252.144531 58.558594 187.402344 58.558594 Z M 187.402344 58.558594 " id="SvgjsPath1091"></path>
    </clipPath>
    <clipPath id="SvgjsClipPath1090">
      <path d="M 99.078125 247.914062 L 275.921875 247.914062 L 275.921875 293.210938 L 99.078125 293.210938 Z M 99.078125 247.914062 " id="SvgjsPath1089"></path>
    </clipPath>
    <clipPath id="SvgjsClipPath1088">
      <path d="M 140 97.992188 L 237 97.992188 L 237 253.777344 L 140 253.777344 Z M 140 97.992188 " id="SvgjsPath1087"></path>
    </clipPath>
    <clipPath id="SvgjsClipPath1086">
      <path d="M 41.011719 296 L 333.886719 296 L 333.886719 316.414062 L 41.011719 316.414062 Z M 41.011719 296 " id="SvgjsPath1085"></path>
    </clipPath>
    <clipPath id="SvgjsClipPath1084">
      <path d="M 71 243.199219 L 185 243.199219 L 185 295 L 71 295 Z M 71 243.199219 " id="SvgjsPath1083"></path>
    </clipPath>
    <clipPath id="SvgjsClipPath1082">
      <path d="M 189 243.199219 L 302 243.199219 L 302 295 L 189 295 Z M 189 243.199219 " id="SvgjsPath1081"></path>
    </clipPath>
  </defs>
  <g id="SvgjsG1080">
    <path style="fill:none;stroke:#ffde59;stroke-width:10.5;stroke-dasharray:none;stroke-opacity:1;stroke-linecap:butt" id="SvgjsPath1079" sodipodi:type="arc" sodipodi:cx="187.2458" sodipodi:cy="175.62732" sodipodi:rx="111.8465" sodipodi:ry="111.8465" sodipodi:start="2.4283615" sodipodi:end="0.71503313" sodipodi:open="true" sodipodi:arc-type="arc" d="m 102.6617,248.80633 a 111.8465,111.8465 0 0 1 7.47053,-154.192196 111.8465,111.8465 0 0 1 154.373,0.139088 111.8465,111.8465 0 0 1 7.19268,154.205408" inkscape:label="arc"></path>
    <g clip-rule="nonzero" clip-path="url(#0b87fd2abf)" id="SvgjsG1078" inkscape:label="flame">
      <path style="fill:#ffde59;fill-opacity:1;fill-rule:nonzero;stroke:none" d="m 196.17969,253.64844 c 15.15234,-7.86328 15.83203,-32.69532 8.66797,-35.41797 1.28515,4.86719 -4.39063,8.57812 -8.66797,13.34765 5.77734,-16.21875 -12.76563,-32.4375 -7.86328,-43.68359 -28.39454,16.43359 -28.15625,55.02344 -8.10157,65.60938 -27.5039,-5.25782 -53.76953,-35.57422 -30.73437,-75.00391 14.07031,-24.09375 56.09765,-51.35937 37.20312,-80.585938 25.97266,15.234378 41.38282,51.023438 21.625,98.566408 4.34766,-1.41406 10.01172,-10.29297 12.98828,-22.83203 27.3086,25 16.46094,73.8164 -25.11718,80" id="SvgjsPath1077"></path>
    </g>
    <g id="SvgjsG1076" inkscape:label="book">
      <g clip-rule="nonzero" clip-path="url(#39cd501219)" id="SvgjsG1075">
        <path style="fill:#2b7fff;fill-opacity:1;fill-rule:nonzero;stroke:none" d="M 329.30859,316.41406 H 198.89062 c -1.14453,0 -2.28906,-0.45703 -3.20312,-1.37109 l -8.23828,-8.00781 -8.23828,8.00781 c -0.91407,0.91406 -2.0586,1.37109 -3.20313,1.37109 H 45.589844 c -2.519532,0 -4.578125,-2.05859 -4.578125,-4.57422 0,-2.51562 2.058593,-4.57812 4.578125,-4.57812 H 174.17969 l 10.0664,-9.83594 c 1.83203,-1.83203 4.57422,-1.83203 6.40625,0 l 10.06641,9.83594 h 128.58984 c 2.51953,0 4.57813,2.0625 4.57813,4.57812 0,2.51563 -2.0586,4.57422 -4.57813,4.57422 z m 0,0" id="SvgjsPath1074"></path>
      </g>
      <g clip-rule="nonzero" clip-path="url(#026707976c)" id="SvgjsG1073">
        <path style="fill:#2b7fff;fill-opacity:1;fill-rule:nonzero;stroke:none" d="m 71.902344,252.12109 25.167968,-8.92187 c 0,0 62.921878,1.14062 86.945308,38.21094 v 13.49609 c 0,0 -36.60937,-42.78516 -112.113276,-42.78516 z m 0,0" id="SvgjsPath1072"></path>
      </g>
      <path style="fill:#2b7fff;fill-opacity:1;fill-rule:nonzero;stroke:none" d="m 66.179688,260.12891 13.730468,-4.57422 c 0,0 64.066404,0 100.675784,38.21093 0,0.22657 -48.05078,-31.34765 -114.406252,-33.63671 z m 0,0" id="SvgjsPath1071"></path>
      <path style="fill:#2b7fff;fill-opacity:1;fill-rule:nonzero;stroke:none" d="m 59.316406,280.26562 6.863282,-13.5 c 0,0 73.218752,2.28907 112.117182,27 0,0.22657 -91.523432,-20.13671 -118.980464,-13.5 z m 0,0" id="SvgjsPath1070"></path>
      <path style="fill:#2b7fff;fill-opacity:1;fill-rule:nonzero;stroke:none" d="m 54.742188,291.70312 c 0,0 41.183593,-13.5 123.554682,6.86719 0,0 -84.660151,-8.92578 -125.843745,0 z m 0,0" id="SvgjsPath1069"></path>
      <g clip-rule="nonzero" clip-path="url(#7611baedad)" id="SvgjsG1068">
        <path style="fill:#2b7fff;fill-opacity:1;fill-rule:nonzero;stroke:none" d="m 301.85156,252.12109 -25.16797,-8.92187 c 0,0 -62.92187,1.14062 -86.94531,38.21094 v 13.49609 c 0,0 36.60938,-42.78516 112.11328,-42.78516 z m 0,0" id="SvgjsPath1067"></path>
      </g>
      <path style="fill:#2b7fff;fill-opacity:1;fill-rule:nonzero;stroke:none" d="m 307.57422,260.12891 -13.73047,-4.57422 c 0,0 -64.06641,0 -100.67578,38.21093 0,0.22657 48.05078,-31.34765 114.40625,-33.63671 z m 0,0" id="SvgjsPath1066"></path>
      <path style="fill:#2b7fff;fill-opacity:1;fill-rule:nonzero;stroke:none" d="m 314.4375,280.26562 -6.86328,-13.5 c 0,0 -73.21875,2.28907 -112.11719,27 0,0.22657 91.52344,-20.13671 118.98047,-13.5 z m 0,0" id="SvgjsPath1065"></path>
      <path style="fill:#2b7fff;fill-opacity:1;fill-rule:nonzero;stroke:none" d="m 319.01172,291.70312 c 0,0 -41.1836,-13.5 -123.55469,6.86719 0,0 84.66016,-8.92578 125.84375,0 z m 0,0" id="SvgjsPath1064"></path>
    </g>
  </g>
</svg><style>@media (prefers-color-scheme: light) { :root { filter: none; } }
@media (prefers-color-scheme: dark) { :root { filter: none; } }
</style></svg>